# xmcd
#
# Track frame offsets:
#	150
#	11410
#	24702
#	37722
#	48362
#	62592
#	73317
#	84492
#	92392
#	104265
#	113922
#	123910
#	137220
#	146385
#	158177
#	172082
#	190427
#	203495
#	216370
#	226847
#	239420
#	251122
#	260070
#	273272
#	283667
#
# Disc length: 3958 seconds
#
# Revision: 1
# Processed by: cddbd v1.4PL0 Copyright (c) Steve Scherf et al.
# Submitted via: audiograbber 1.81.03
#
DISCID=680f7419
DTITLE=Various Artist - The Country Album Vol 2
DYEAR=1900
DGENRE=Country
TTITLE0=Frankie Laine - Love is a golden ring
TTITLE1=Don Williams - Ruby Tuesday
TTITLE2=Ferlin Husky - I'd be a legend in my time
TTITLE3=Kenny Rogers - Homemade ls
TTITLE4=George Jones - Open pit mine
TTITLE5=Patsy Cline - Stop, look and listen
TTITLE6=Ferlin Husky - San Antonio rose
TTITLE7=George Jones - Jambalaya
TTITLE8=Patsy Cline - In care of the blues
TTITLE9=Dave Dudley - Six days on the road
TTITLE10=Willie Nelson - I didn't sleep a wink
TTITLE11=Don Willias - Where do we go from here
TTITLE12=Frankie Laine - Rawhide
TTITLE13=Patsy Cline - Walkin' after midnight
TTITLE14=George Jones - Wedding bells
TTITLE15=Kenny Rogers - The king of the street
TTITLE16=Dolly Parton - Little blossom
TTITLE17=Frankie Laine - Moonlight gambler
TTITLE18=Waylon Jennings - Dream baby
TTITLE19=Kitty Wells - Making believe
TTITLE20=Kenny Rogers - Elvira
TTITLE21=George Jones - Please don't let that woman get me
TTITLE22=Willie Nelson - I just don't understand
TTITLE23=Ferlin Husky - Wings of a dove
TTITLE24=Lynn Anderson - I never promised you a rose garden
EXTD=Part of the Diamond Collection
EXTT0=
EXTT1=
EXTT2=
EXTT3=
EXTT4=
EXTT5=
EXTT6=
EXTT7=
EXTT8=
EXTT9=
EXTT10=
EXTT11=
EXTT12=
EXTT13=
EXTT14=
EXTT15=
EXTT16=
EXTT17=
EXTT18=
EXTT19=
EXTT20=
EXTT21=
EXTT22=
EXTT23=
EXTT24=
PLAYORDER=
